Coordinates
version=1
nRows=6
nColumns=36
inDegrees=yes

Units are S.I. units (second, meters, Newtons, ...)
If the header above contains a line with 'inDegrees', this indicates whether rotational values are in degrees (yes) or radians (no).

endheader
time	pelvis_tilt	pelvis_list	pelvis_rotation	pelvis_tx	pelvis_ty	pelvis_tz	hip_flexion_r	hip_adduction_r	hip_rotation_r	knee_angle_r	knee_angle_r_beta	ankle_angle_r	subtalar_angle_r	mtp_angle_r	hip_flexion_l	hip_adduction_l	hip_rotation_l	knee_angle_l	knee_angle_l_beta	ankle_angle_l	subtalar_angle_l	mtp_angle_l	lumbar_extension	lumbar_bending	lumbar_rotation	arm_flex_r	arm_add_r	arm_rot_r	elbow_flex_r	pro_sup_r	arm_flex_l	arm_add_l	arm_rot_l	elbow_flex_l	pro_sup_l
      3.47916670	     -6.95698269	     -0.53832530	      3.57192451	      0.33712789	      0.89674553	     -0.14549454	      3.18001829	     -2.44220405	     -4.71218000	      0.64780998	      0.01130642	      5.15530478	     -3.00786392	     -7.49999987	      4.02298621	      1.18304580	      3.46000085	      0.47253980	      0.00824738	      4.39133507	     -2.98752335	     -7.49999987	      0.01022909	     -0.50031109	      2.69844308	     -5.52370721	     -7.21110840	     10.74863917	     36.80021940	     67.16574447	     -4.90482604	    -11.79416123	     16.85937561	     47.94151828	     83.02593901
      3.48333330	     -6.80046961	     -0.56039233	      3.68736054	      0.33869816	      0.89857899	     -0.14512909	      2.92990841	     -2.41762660	     -4.80253958	      0.62896032	      0.01097743	      5.16556299	     -2.98133910	     -7.49999987	      3.80896029	      1.16917107	      3.66428974	      0.45193945	      0.00788783	      4.35936300	     -3.21366359	     -7.49999987	     -0.02641589	     -0.46089176	      2.54563979	     -5.25264568	     -7.10478577	     11.16971711	     35.77328740	     67.28400327	     -4.61392638	    -11.76096027	     17.38461643	     46.60593391	     83.37673060
      3.48750000	     -6.80066784	     -0.59124070	      3.72963348	      0.33963879	      0.89888405	     -0.14402142	      2.86590962	     -2.36531365	     -4.79364761	      0.64407714	      0.01124127	      5.16938848	     -2.96950405	     -7.49999987	      3.76614156	      1.12912208	      3.66680409	      0.44517634	      0.00776979	      4.37783037	     -3.22095039	     -7.49999987	     -0.05847196	     -0.48097358	      2.54926041	     -5.39690461	     -7.05076486	     11.20980364	     35.69577906	     67.29007644	     -4.73303951	    -11.83975507	     17.40120580	     46.49618421	     83.39149713
      3.49166670	     -6.60715939	     -0.61644237	      3.76477991	      0.33917227	      0.89845186	     -0.14441847	      2.58524904	     -2.29257023	     -4.88498630	      0.61719776	      0.01077213	      5.27063986	     -2.83499577	     -7.49999987	      3.52764466	      1.08664187	      3.59917511	      0.42567897	      0.00742950	      4.45244815	     -3.15492604	     -7.49999987	     -0.18680386	     -0.45020854	      2.51778973	     -5.15408812	     -6.92299081	     11.43797379	     34.86057132	     67.02438975	     -4.52172475	    -11.77537611	     17.71470681	     45.40527437	     82.64000038
      3.49583330	     -6.46119217	     -0.64887552	      3.85535538	      0.33907494	      0.89646811	     -0.14540160	      2.37625478	     -2.23194553	     -4.95408915	      0.61252093	      0.01069051	      5.37571755	     -2.75624482	     -7.49999987	      3.36683466	      1.05412318	      3.64971508	      0.41243758	      0.00719839	      4.57538166	     -3.09890628	     -7.49999987	     -0.34375265	     -0.43365392	      2.50130263	     -5.05027425	     -6.91498814	     11.73777448	     34.45889844	     66.75440644	     -4.33700390	    -11.75192044	     18.06397271	     44.70348547	     81.80143636
      3.50000000	     -6.40135905	     -0.67034015	      3.92607325	      0.33972452	      0.89679015	     -0.14490509	      2.26970528	     -2.18544650	     -4.99321072	      0.61946169	      0.01081165	      5.41302828	     -2.77771960	     -7.49999987	      3.28702694	      1.03539541	      3.71995659	      0.40564169	      0.00707978	      4.57893331	     -3.23514010	     -7.49999987	     -0.33429953	     -0.44102383	      2.48455565	     -4.86908365	     -6.87938114	     12.09451770	     33.82721846	     66.79332651	     -4.14989844	    -11.76552753	     18.41404383	     43.90658792	     81.90308888
